<svg xmlns="http://www.w3.org/2000/svg" xmlns:xlink="http://www.w3.org/1999/xlink" version="1.1" x="0px" y="0px"
  viewBox="0 0 100 125" enable-background="new 0 0 100 100" xml:space="preserve">
  <path
    d="M49.5,7.9c10.9-0.1,21.2,3.9,29.2,11.3l0-3.3c0-1.2,0.9-2.1,2.1-2.1c1.2,0,2.1,0.9,2.1,2.1l0.1,8.4c0,1.2-0.9,2.1-2.1,2.1  l-8.4,0.1c0,0,0,0,0,0c-1.2,0-2.1-0.9-2.1-2.1c0-1.2,0.9-2.1,2.1-2.1l3.2,0c-7.1-6.6-16.3-10.1-26.1-10C39.4,12.2,30,16.3,22.9,23.5  C12.7,34,9.4,49,14.4,62.8c0.4,1.1-0.2,2.3-1.3,2.7c-0.2,0.1-0.5,0.1-0.7,0.1c-0.9,0-1.7-0.5-2-1.4C7.7,56.9,7.2,49,8.8,41.4  c1.6-7.9,5.5-15,11.1-20.8C27.7,12.5,38.3,8,49.5,7.9z M50.4,87.9c-9.8,0.1-19-3.4-26.1-10l3.2,0c1.2,0,2.1-1,2.1-2.1  c0-1.2-1-2.1-2.1-2.1c0,0,0,0,0,0l-8.4,0.1c-1.2,0-2.1,1-2.1,2.1l0.1,8.4c0,1.2,1,2.1,2.1,2.1c0,0,0,0,0,0c1.2,0,2.1-1,2.1-2.1  l0-3.3c7.8,7.3,17.9,11.3,28.7,11.3c0.2,0,0.3,0,0.5,0c11.3-0.1,21.8-4.6,29.6-12.7c5.6-5.8,9.5-13,11.1-20.8  c1.6-7.6,1-15.6-1.6-22.9c-0.4-1.1-1.6-1.7-2.7-1.3c-1.1,0.4-1.7,1.6-1.3,2.7C90.6,51,87.3,66,77.1,76.5  C70,83.7,60.6,87.8,50.4,87.9z M60.9,39.8v4.8h3c1.2,0,2.1,1,2.1,2.1v18c0,1.2-1,2.1-2.1,2.1H36.1c-1.2,0-2.1-1-2.1-2.1v-18  c0-1.2,1-2.1,2.1-2.1h3v-4.8c0-6,4.9-11,11-11S60.9,33.8,60.9,39.8z M43.3,44.6h13.4v-4.8c0-3.7-3-6.7-6.7-6.7s-6.7,3-6.7,6.7V44.6z   M61.8,48.9H38.2v13.7h23.6V48.9z" />
</svg>